<?xml version="1.0" encoding="UTF-8" standalone="no"?>
<svg
   version="1.0"
   width="674.000000pt"
   height="674.000000pt"
   viewBox="0 0 674.000000 674.000000"
   preserveAspectRatio="xMidYMid meet"
   id="svg42"
   sodipodi:docname="new_logo.svg"
   inkscape:version="1.1.1 (3bf5ae0d25, 2021-09-20, custom)"
   xmlns:inkscape="http://www.inkscape.org/namespaces/inkscape"
   xmlns:sodipodi="http://sodipodi.sourceforge.net/DTD/sodipodi-0.dtd"
   xmlns="http://www.w3.org/2000/svg"
   xmlns:svg="http://www.w3.org/2000/svg">
  <defs
     id="defs46">
    <rect
       x="692.53689"
       y="670.6766"
       width="73.821741"
       height="25.360716"
       id="rect36471" />
    <rect
       x="135.24147"
       y="623.90384"
       width="684.69447"
       height="86.666427"
       id="rect9872" />
  </defs>
  <sodipodi:namedview
     id="namedview44"
     pagecolor="#ffffff"
     bordercolor="#666666"
     borderopacity="1.0"
     inkscape:pageshadow="2"
     inkscape:pageopacity="0.0"
     inkscape:pagecheckerboard="0"
     inkscape:document-units="pt"
     showgrid="false"
     inkscape:zoom="0.78227003"
     inkscape:cx="247.35704"
     inkscape:cy="448.69417"
     inkscape:window-width="1920"
     inkscape:window-height="1020"
     inkscape:window-x="0"
     inkscape:window-y="28"
     inkscape:window-maximized="1"
     inkscape:current-layer="g40" />
  <g
     transform="matrix(0.1,0,0,-0.1,2.7519539,675.4277)"
     fill="#f23838ff"
     stroke="none"
     id="g40">
    <path
       d="M 3175,6734 C 1966,6655 905,5958 366,4890 121,4405 6,3921 6,3370 6,2960 69,2590 200,2228 l 32,-88 h 80 c 72,0 79,2 73,18 -91,216 -177,549 -217,842 -17,127 -17,614 0,740 104,762 407,1387 926,1906 470,469 1051,774 1701,893 217,39 296,45 575,45 279,0 358,-6 575,-45 650,-119 1231,-424 1701,-893 519,-519 822,-1144 926,-1906 17,-126 17,-613 0,-740 -40,-293 -126,-626 -217,-843 -6,-15 1,-17 73,-17 h 80 l 32,87 c 131,363 194,733 194,1143 0,445 -74,843 -230,1235 -459,1150 -1487,1948 -2712,2105 -152,20 -484,32 -617,24 z"
       id="path2" />
    <path
       d="m 2836,5208 c -126,-436 -232,-796 -235,-800 -4,-4 -38,107 -76,247 -38,140 -73,251 -76,247 -3,-4 -79,-214 -167,-467 -88,-253 -292,-833 -451,-1289 -160,-456 -291,-830 -291,-832 0,-2 409,-4 909,-4 h 909 l 15,38 c 8,20 169,446 357,946 l 342,908 -307,677 c -169,372 -311,682 -315,689 -3,7 -26,-62 -50,-155 -23,-92 -46,-174 -50,-182 -7,-13 -33,58 -201,551 -41,120 -76,218 -79,218 -3,0 -108,-357 -234,-792 z m 377,100 c 70,-222 127,-409 127,-416 0,-19 -312,-522 -321,-517 -3,3 -5,15 -3,27 15,89 73,602 69,606 -3,3 -59,-20 -125,-51 -66,-31 -120,-53 -121,-49 -1,14 236,802 241,802 3,0 63,-181 133,-402 z"
       id="path4" />
    <path
       d="m 4512,5163 c -6,-16 -98,-260 -205,-543 -500,-1322 -860,-2277 -864,-2292 -5,-17 65,-18 1376,-18 759,0 1381,2 1381,5 0,10 -1184,2205 -1190,2205 -3,0 -16,-60 -29,-132 -13,-73 -27,-141 -30,-151 -4,-11 -78,149 -215,468 -115,267 -210,485 -211,485 -2,0 -8,-12 -13,-27 z m 157,-553 c 76,-184 137,-336 136,-338 -2,-2 -35,17 -74,42 -39,25 -102,66 -140,90 l -70,45 -128,-99 c -70,-55 -131,-100 -134,-100 -6,0 224,629 252,690 7,14 13,21 16,15 2,-5 66,-161 142,-345 z"
       id="path6" />
    <path
       d="m 1411,3894 c -156,-366 -287,-662 -291,-657 -3,4 -24,101 -45,216 -22,114 -42,202 -46,195 -10,-20 -531,-1301 -537,-1321 -4,-16 22,-17 483,-15 l 487,3 290,828 290,828 -168,295 c -92,161 -171,294 -174,294 -3,0 -133,-300 -289,-666 z m 410,254 102,-203 -17,-65 c -10,-36 -21,-68 -25,-73 -4,-4 -40,18 -81,48 -40,30 -77,55 -82,55 -4,0 -56,-30 -113,-66 -58,-37 -107,-65 -109,-63 -3,4 217,569 221,569 2,0 49,-91 104,-202 z"
       id="path8" />
    <text
       xml:space="preserve"
       transform="matrix(11.631762,0,0,-16.660666,-1861.3367,12682.625)"
       id="text9870"
       style="font-style:normal;font-variant:normal;font-weight:bold;font-stretch:normal;font-size:24px;line-height:1.25;font-family:'JetBrains Mono';-inkscape-font-specification:'JetBrains Mono Bold';font-variant-ligatures:none;white-space:pre;shape-inside:url(#rect9872);image-rendering:auto"><tspan
         x="135.24219"
         y="668.84273"
         id="tspan15640">                            <tspan
   style="font-size:45.9739px"
   id="tspan15636"> </tspan><tspan
   style="font-size:51.7206px;font-family:'Comic Sans MS';-inkscape-font-specification:'Comic Sans MS Bold'"
   id="tspan15638">AGORA 2.0</tspan></tspan></text>
    <path
       d="m 6568,1795 2,-355 -3215,2 c -1768,2 -3215,0 -3215,-4 0,-5 107,-8 238,-8 h 237 l 82,-108 C 1186,679 1925,219 2716,66 2955,20 3106,6 3370,6 c 351,0 612,36 939,130 682,195 1307,624 1739,1192 l 74,97 226,5 227,5 3,358 c 1,196 -1,357 -5,357 -5,0 -7,-160 -5,-355 z M 5904,1383 C 5395,748 4722,343 3945,201 c -217,-39 -296,-45 -575,-45 -279,0 -358,6 -575,45 C 2018,343 1345,748 836,1383 l -38,47 h 2572 2572 z"
       id="path10" />
    <path
       d="m 1851,1266 c 4,-3 803,-577 854,-613 l 31,-21 109,89 c 61,50 191,157 290,238 99,82 224,185 279,230 l 98,81 h -832 c -459,0 -831,-2 -829,-4 z"
       id="path12" />
    <path
       d="m 3457,1172 c -65,-53 -117,-101 -116,-107 2,-8 181,-139 570,-416 l 26,-18 387,320 387,319 h -568 l -568,-1 z"
       id="path14" />
    <path
       d="m 3155,923 c -77,-64 -141,-119 -143,-123 -3,-7 296,-227 316,-232 9,-3 291,222 292,233 0,5 -278,209 -314,231 -6,3 -73,-45 -151,-109 z"
       id="path16" />
    <text
       xml:space="preserve"
       transform="matrix(7.5,0,0,-7.5,-27.519539,6754.277)"
       id="text36469"
       style="line-height:1.25;font-family:'DejaVu Sans Mono';font-size:24px;-inkscape-font-specification:'DejaVu Sans Mono, Normal';font-variant-ligatures:none;white-space:pre;shape-inside:url(#rect36471)" />
  </g>
</svg>
